<svg id="Layer_1" data-name="Layer 1" xmlns="http://www.w3.org/2000/svg" width="600" height="400" viewBox="0 0 600 400"><defs><style>.cls-1{fill:#393;}</style></defs><title>Logos</title><rect x="290.86" y="255.19" width="5.87" height="49.78"/><path d="M279.4,274c-2.35-2.35-6-3.38-9.67-3.38-7.18,0-11.53,3.11-11.87,3.45L260,278a18.65,18.65,0,0,1,9.18-2.62c2.42,0,4.55.41,5.87,1.73s1.38,2.83,1.38,4.69V284h-1.52c-5.18,0-19.06.28-19.06,11.32,0,6.15,4.28,10.36,10.77,10.36a19.3,19.3,0,0,0,10.22-3.17V305h5.25V284C282.09,279.36,281.88,276.53,279.4,274Zm-3,24.37c-0.76.35-4.22,2.49-8.35,2.49s-6.63-2.35-6.63-5.73A5,5,0,0,1,263,291.3c2.14-2.14,6.42-2.9,11.73-2.9h1.73v10h0Z"/><path d="M252.84,304l-1.52-4.14a12.23,12.23,0,0,1-4.63.89c-4.76,0-4.9-3-4.9-6.35v-18h10.29v-4.83H241.8v-9.39h-5.87v9.39h-5.87v4.83h5.87v17.05c0,4-.21,7.39,2.21,9.81,1.8,1.8,4.48,2.55,7.53,2.55a14.58,14.58,0,0,0,7.18-1.79"/><path d="M225.26,305v-19.4c0-5.39-.14-8.84-3.31-12-1-1-3.38-2.9-8-2.9A19.23,19.23,0,0,0,203.51,274v-2.49h-5.25V305h5.87V278.53c0.28-.21,4.49-2.9,8.77-2.9a6.81,6.81,0,0,1,4.69,1.66c1.73,1.73,1.8,4.49,1.8,8.7v19h5.87Z"/><path d="M192,287.37c0-10.49-5.32-16.7-13.74-16.7-9.32,0-15.53,7.18-15.53,17.81,0,9.94,5.73,17.26,15.88,17.26a21.3,21.3,0,0,0,12.15-3.59l-2.2-4a18.56,18.56,0,0,1-9.46,2.62c-7.25,0-10.56-5.18-10.49-10.9h23.26C191.83,289.23,192,288.06,192,287.37Zm-23.33-2.14c0.48-6,4.42-9.87,9.66-9.87,6.21,0,8,6,8,9.87H168.63Z"/><path d="M151.77,264.79c-5.52-5.52-12.22-5.87-21.13-5.87H120.49v46h10.08c8.56,0,15.4-.41,21.2-6.21,4.21-4.21,6.56-10.15,6.56-17.12A23.8,23.8,0,0,0,151.77,264.79Zm-4.35,30.45c-3.93,4-8.9,4.69-15.05,4.69h-5.73v-36h4c7.94,0,12.49.34,16.5,4.35s4.9,8.56,4.9,13.26C152,287.09,150.53,292.06,147.42,295.24Z"/><path d="M380.19,240v-19.4c0-5.39-.14-8.84-3.31-12-1-1-3.38-2.9-8-2.9a19.23,19.23,0,0,0-10.43,3.38v-2.49h-5.25V240h5.87V213.6c0.28-.21,4.48-2.9,8.77-2.9a6.82,6.82,0,0,1,4.69,1.66c1.73,1.73,1.8,4.49,1.8,8.7v19h5.87Z"/><path d="M341.73,209.11c-2.35-2.35-6-3.38-9.67-3.38-7.18,0-11.53,3.11-11.87,3.45l2.14,3.93a18.7,18.7,0,0,1,9.18-2.62c2.42,0,4.56.41,5.87,1.73s1.38,2.83,1.38,4.69v2.14h-1.52c-5.18,0-19.06.28-19.06,11.32,0,6.15,4.28,10.36,10.77,10.36a19.29,19.29,0,0,0,10.22-3.17V240h5.25v-21C344.42,214.43,344.21,211.6,341.73,209.11Zm-3,24.37c-0.76.34-4.21,2.49-8.35,2.49s-6.63-2.35-6.63-5.73a5,5,0,0,1,1.52-3.87c2.14-2.14,6.42-2.9,11.74-2.9h1.73v10h0Z"/><path d="M315.27,237.07l-2.42-4a17.16,17.16,0,0,1-8.91,2.63c-6.56,0-10.84-5-10.84-12.36,0-6.83,4.35-12.63,11.18-12.63a14.17,14.17,0,0,1,8,2.42l2.49-3.8a16.42,16.42,0,0,0-10.63-3.59c-9.87,0-17,7.53-17,18.16,0,10.22,6.63,16.91,16.22,16.91a20,20,0,0,0,11.88-3.73"/><rect x="274.24" y="206.63" width="5.87" height="33.41"/><path d="M280.73,196a3.59,3.59,0,1,0-3.59,3.59,3.57,3.57,0,0,0,3.59-3.59"/><path d="M269.77,206.35a7.83,7.83,0,0,0-3.59-.62A13.93,13.93,0,0,0,255.41,211v-4.35h-5.25V240H256V216.29a11.6,11.6,0,0,1,9.87-5.45,16.82,16.82,0,0,1,2.49.21Z"/><path d="M243.52,222.43c0-10.49-5.32-16.7-13.74-16.7-9.32,0-15.53,7.18-15.53,17.81,0,9.94,5.73,17.26,15.88,17.26a21.32,21.32,0,0,0,12.15-3.59l-2.21-4a18.57,18.57,0,0,1-9.46,2.62c-7.25,0-10.56-5.18-10.49-10.91h23.27C243.38,224.3,243.52,223.13,243.52,222.43Zm-23.34-2.14c0.48-6,4.42-9.87,9.67-9.87,6.21,0,8,6,8,9.87H220.18Z"/><path d="M208,240v-19.4c0-5.39-.14-8.84-3.32-12-1-1-3.38-2.9-8-2.9-5,0-8.83,2.14-11.6,3.87a9.53,9.53,0,0,0-8.21-3.87c-5.25,0-9.81,3.11-10.22,3.38v-2.49H161.4V240h5.87V213.46c0.48-.28,4.49-2.76,8.56-2.76a6,6,0,0,1,4.35,1.52c1.73,1.8,1.66,4.83,1.66,9.32V240h5.8V221.33c0-2.69,0-6.35-.55-7.8,0.76-.48,4.76-2.83,8.84-2.83a5.75,5.75,0,0,1,4.56,1.73c1.73,1.87,1.66,6,1.66,8.08V240H208Z"/><path d="M139.91,194h-6.56l-16.71,46h6.21l4.21-12h19l4.21,12h6.49Zm-11.12,29,7.73-22.44,7.8,22.44H128.79Z"/><path class="cls-1" d="M243,157.77H215.77l-8.88-26h-54.1l-8.7,26H116.64l47.9-126.49h19.78c6.71,0,11,2.09,12.78,7s23.57,61.11,23.57,61.11H195.16L179.67,56.61l-19.61,53.84h54.77c7.34,0,11.38,2.4,13.33,8.46Z"/><path class="cls-1" d="M482.24,157.77H455l-8.88-26H392l-8.71,26H355.85L403.74,31.28h19.78c6.71,0,11,2.09,12.78,7s23.57,61.11,23.57,61.11H434.36L418.87,56.61l-19.61,53.84H454c7.34,0,11.38,2.4,13.32,8.46l16,40"/><path class="cls-1" d="M251.69,31.28H301.3C340,31.28,359,51.86,359,94.61c0,23.58-7.39,41.35-20.59,51.91-12.32,9.85-26,11.26-44.16,11.26H251.69V31.28ZM298.13,134.9c24.11,0,34.31-11.79,34.31-40.29,0-28.15-9.67-41.17-31.14-41.17H277.2V134.9h20.93Z"/><path d="M435.7,367.83v-19.4c0-5.39-.14-8.84-3.31-12-1-1-3.38-2.9-8-2.9A19.25,19.25,0,0,0,414,336.9v-2.49h-5.25v33.41h5.87V341.39c0.28-.21,4.48-2.9,8.77-2.9a6.8,6.8,0,0,1,4.69,1.66c1.73,1.73,1.8,4.49,1.8,8.7v19h5.87Z"/><path d="M387,333.52c-9.74,0-16,7.11-16,17.6s6.21,17.47,15.53,17.47c9.66,0,15.95-7,15.95-17.47C402.42,340.42,396.27,333.52,387,333.52Zm-0.14,30.17c-5.73,0-10-5.11-10-12.77s3.8-12.57,9.8-12.57c5.73,0,9.94,5.18,9.94,12.84S393,363.69,386.81,363.69Z"/><rect x="358.05" y="334.41" width="5.87" height="33.41"/><path d="M364.54,323.78a3.59,3.59,0,1,0-3.59,3.59,3.57,3.57,0,0,0,3.59-3.59"/><path d="M353.11,366.86l-1.52-4.14a12.24,12.24,0,0,1-4.63.89c-4.76,0-4.9-3-4.9-6.35v-18h10.29v-4.83H342.06V325H336.2v9.39h-5.87v4.83h5.87V356.3c0,4-.21,7.39,2.21,9.81,1.8,1.79,4.49,2.55,7.53,2.55a14.61,14.61,0,0,0,7.18-1.79"/><path d="M322.48,336.9c-2.35-2.35-6-3.38-9.67-3.38-7.18,0-11.53,3.1-11.87,3.45l2.14,3.94a18.66,18.66,0,0,1,9.18-2.62c2.42,0,4.56.41,5.87,1.73s1.38,2.83,1.38,4.69v2.14H318c-5.18,0-19.06.28-19.06,11.32,0,6.15,4.28,10.36,10.77,10.36a19.31,19.31,0,0,0,10.22-3.17v2.49h5.25v-21C325.17,342.21,325,339.38,322.48,336.9Zm-3,24.37c-0.76.34-4.21,2.49-8.36,2.49s-6.63-2.35-6.63-5.73a5,5,0,0,1,1.52-3.86c2.14-2.14,6.42-2.9,11.74-2.9h1.73v10h0Z"/><rect x="286.27" y="334.41" width="5.87" height="33.41"/><path d="M292.76,323.78a3.59,3.59,0,1,0-3.59,3.59,3.57,3.57,0,0,0,3.59-3.59"/><path d="M280.54,364.86l-2.42-4a17.18,17.18,0,0,1-8.9,2.62c-6.56,0-10.84-5-10.84-12.36,0-6.83,4.35-12.63,11.18-12.63a14.14,14.14,0,0,1,8,2.42l2.49-3.8a16.41,16.41,0,0,0-10.63-3.59c-9.87,0-17,7.53-17,18.16,0,10.22,6.63,16.91,16.22,16.91a20,20,0,0,0,11.88-3.73"/><path d="M232,333.52c-9.73,0-16,7.11-16,17.6s6.22,17.47,15.53,17.47c9.67,0,15.95-7,15.95-17.47C247.43,340.42,241.29,333.52,232,333.52Zm-0.14,30.17c-5.73,0-10-5.11-10-12.77s3.8-12.57,9.8-12.57c5.73,0,9.94,5.18,9.94,12.84S238,363.69,231.83,363.69Z"/><path d="M211.37,358.51c0-10.63-16.71-9.46-16.71-15.88,0-2.49,2.07-4.49,6.15-4.49a16.4,16.4,0,0,1,7.94,2.28l2.21-3.93c-0.35-.28-4.08-3-10.56-3-6.84,0-11.67,3.8-11.67,9.46,0,10.63,16.5,9.12,16.5,15.95,0,3-2.83,5-6.42,5a17.13,17.13,0,0,1-8.91-2.56l-2.21,4.07a20.41,20.41,0,0,0,11.46,3.31c6.56,0,12.22-3.72,12.22-10.21"/><path d="M183.65,358.51c0-10.63-16.71-9.46-16.71-15.88,0-2.49,2.07-4.49,6.15-4.49a16.41,16.41,0,0,1,7.94,2.28l2.21-3.93c-0.35-.28-4.07-3-10.56-3-6.84,0-11.67,3.8-11.67,9.46,0,10.63,16.5,9.12,16.5,15.95,0,3-2.83,5-6.42,5a17.12,17.12,0,0,1-8.91-2.56L160,365.41a20.41,20.41,0,0,0,11.46,3.31c6.55,0,12.21-3.72,12.21-10.21"/><path d="M139.9,321.78h-6.56l-16.7,46h6.21l4.21-12h19l4.21,12h6.49Zm-11.12,29,7.73-22.44,7.8,22.44H128.79Z"/><path d="M450.48,340.56a9.42,9.42,0,1,1,9.44-9.4A9.36,9.36,0,0,1,450.48,340.56Zm0-17.2a7.78,7.78,0,1,0,7.85,7.8A7.7,7.7,0,0,0,450.48,323.36Zm2.8,12.89L452,333.58c-0.78-1.59-.95-1.72-2.54-1.72h-0.69v4.4h-1.51V325.86h2.46c1.42,0,2.63.08,3.49,0.95a2.6,2.6,0,0,1,.78,2,2.38,2.38,0,0,1-2.59,2.42c1.16,0,1.47.69,1.9,1.59l1.64,3.41h-1.64Zm-3.49-9.06h-1v3.37c1.38,0,3.75.21,3.75-1.81C452.51,327.33,450.87,327.2,449.8,327.2Z"/></svg>